<svg width="20" height="20" viewBox="0 0 20 20" fill="none" xmlns="http://www.w3.org/2000/svg">
<path fill-rule="evenodd" clip-rule="evenodd" d="M9.80584 3.71209C10.172 3.34597 10.7655 3.34597 11.1317 3.71209L16.7567 9.33709C17.1228 9.7032 17.1228 10.2968 16.7567 10.6629L11.1317 16.2879C10.7655 16.654 10.172 16.654 9.80584 16.2879C9.43972 15.9218 9.43972 15.3282 9.80584 14.9621L14.7679 10L9.80584 5.03791C9.43972 4.6718 9.43972 4.0782 9.80584 3.71209Z" fill="#00E06E"/>
<path fill-rule="evenodd" clip-rule="evenodd" d="M2.96875 10C2.96875 9.48223 3.38848 9.0625 3.90625 9.0625H15.3125C15.8303 9.0625 16.25 9.48223 16.25 10C16.25 10.5178 15.8303 10.9375 15.3125 10.9375H3.90625C3.38848 10.9375 2.96875 10.5178 2.96875 10Z" fill="#00E06E"/>
</svg>
