<svg width="48" height="48" viewBox="0 0 48 48" fill="none" xmlns="http://www.w3.org/2000/svg">
<path d="M30.6173 4C31.4457 4 32.1173 4.67158 32.1173 5.5V5.83796C33.6141 6.2163 34.7219 7.57202 34.7219 9.18646C34.7219 10.0149 34.0503 10.6865 33.2219 10.6865C32.3935 10.6865 31.7219 10.0149 31.7219 9.18646C31.7219 8.93592 31.5189 8.73282 31.2683 8.73282H30.4783C29.9449 8.73282 29.5127 9.16514 29.5127 9.69842C29.5127 10.1009 29.7623 10.4612 30.1391 10.6025L32.1489 11.3562C33.6965 11.9367 34.7219 13.4163 34.7219 15.0693C34.7219 16.7813 33.6371 18.2399 32.1173 18.7952V19.2674C32.1173 20.0958 31.4457 20.7674 30.6173 20.7674C29.7889 20.7674 29.1173 20.0958 29.1173 19.2674V18.9298C27.6203 18.5514 26.5127 17.1957 26.5127 15.5812C26.5127 14.7528 27.1843 14.0812 28.0127 14.0812C28.8411 14.0812 29.5127 14.7528 29.5127 15.5812C29.5127 15.8318 29.7157 16.0349 29.9663 16.0349H30.7563C31.2897 16.0349 31.7219 15.6026 31.7219 15.0693C31.7219 14.6668 31.4723 14.3065 31.0955 14.1652L29.0857 13.4115C27.5379 12.831 26.5127 11.3514 26.5127 9.69842C26.5127 7.98642 27.5975 6.5278 29.1173 5.97252V5.5C29.1173 4.67158 29.7889 4 30.6173 4Z" fill="#00E06E"/>
<path d="M38.8532 22.1688C40.1678 21.1026 42.0894 21.2632 43.2088 22.5328C44.2228 23.683 44.2634 25.3958 43.305 26.5928L35.5718 36.25C34.8208 37.1876 33.6846 37.7334 32.4834 37.7334H20.137C19.765 37.7334 19.4063 37.8716 19.1305 38.1212L18.0808 39.071C18.2901 39.728 18.0225 40.4648 17.4008 40.8238L12.2476 43.799C11.5302 44.2132 10.6128 43.9674 10.1986 43.25L4.20122 32.8622C3.787 32.1448 4.03281 31.2274 4.75025 30.8132L9.90345 27.838C10.3797 27.563 10.9441 27.579 11.3909 27.8306L14.7753 25.1252C15.8823 24.2402 17.2811 23.6302 18.8256 23.6232C20.4524 23.6158 23.0238 23.7598 25.3508 24.609H30.5464C31.869 24.609 33.024 25.3274 33.6424 26.395L38.8532 22.1688ZM17.1177 35.8966C17.9451 35.148 19.0211 34.7334 20.137 34.7334H32.4834C32.7738 34.7334 33.0484 34.6014 33.23 34.3748L40.9632 24.7176C41.0106 24.6584 41.0086 24.5736 40.9584 24.5168C40.903 24.454 40.808 24.446 40.743 24.4988L33.041 30.7456C32.3968 31.373 31.5166 31.7596 30.5464 31.7596H25.0766C24.2482 31.7596 23.5766 31.088 23.5766 30.2596C23.5766 29.4312 24.2482 28.7596 25.0766 28.7596H30.5464C30.639 28.7596 30.7266 28.7376 30.8042 28.6988C30.8204 28.6844 30.8368 28.6704 30.8538 28.6568L31 28.5382C31.0762 28.4406 31.1216 28.3178 31.1216 28.1844C31.1216 27.8666 30.864 27.609 30.5464 27.609H25.1824C24.9226 27.609 24.673 27.5598 24.444 27.4726C22.592 26.7668 20.3774 26.6162 18.8391 26.6232C18.0926 26.6266 17.331 26.9228 16.6485 27.4684L13.0725 30.327L16.5728 36.3896L17.1177 35.8966ZM7.54928 32.6614L12.0466 40.451L14.6018 38.9758L10.1044 31.1862L7.54928 32.6614Z" fill="#00E06E"/>
</svg>
