<svg width="48" height="48" viewBox="0 0 48 48" fill="none" xmlns="http://www.w3.org/2000/svg">
<path d="M8 14C8 12.9391 8.42143 11.9217 9.17157 11.1716C9.92172 10.4214 10.9391 10 12 10H36C37.0609 10 38.0783 10.4214 38.8284 11.1716C39.5786 11.9217 40 12.9391 40 14V38C40 39.0609 39.5786 40.0783 38.8284 40.8284C38.0783 41.5786 37.0609 42 36 42H12C10.9391 42 9.92172 41.5786 9.17157 40.8284C8.42143 40.0783 8 39.0609 8 38V14Z" stroke="#00E06E" stroke-width="4" stroke-linecap="round" stroke-linejoin="round"/>
<path d="M32 6V14" stroke="#00E06E" stroke-width="4" stroke-linecap="round" stroke-linejoin="round"/>
<path d="M16 6V14" stroke="#00E06E" stroke-width="4" stroke-linecap="round" stroke-linejoin="round"/>
<path d="M8 22H40" stroke="#00E06E" stroke-width="4" stroke-linecap="round" stroke-linejoin="round"/>
</svg>
