<svg width="145" height="30" viewBox="0 0 145 30" fill="none" xmlns="http://www.w3.org/2000/svg">
<path d="M13.4 4.25V0H0V29.2H13.4V24.95C10.655 24.95 8.0224 23.8595 6.08144 21.9185C4.14044 19.9775 3.05 17.345 3.05 14.6C3.05 11.855 4.14044 9.22241 6.08144 7.28145C8.0224 5.34045 10.655 4.25 13.4 4.25Z" fill="#00E06E"/>
<path d="M13.4004 4.25V24.95C16.1454 24.95 18.778 23.8595 20.719 21.9185C22.66 19.9775 23.7504 17.345 23.7504 14.6C23.7504 11.855 22.66 9.22241 20.719 7.28145C18.778 5.34045 16.1454 4.25 13.4004 4.25Z" fill="#00E06E"/>
<path d="M36.3555 4.59998V22.6H32.9805V4.59998H36.3555ZM35.875 15.8148H34.9492C34.957 14.932 35.0742 14.1195 35.3008 13.3773C35.5273 12.6273 35.8516 11.9789 36.2734 11.432C36.6953 10.8773 37.1992 10.4476 37.7852 10.1429C38.3789 9.83826 39.0352 9.68591 39.7539 9.68591C40.3789 9.68591 40.9453 9.77576 41.4531 9.95544C41.9688 10.1273 42.4102 10.4086 42.7773 10.7992C43.1523 11.182 43.4414 11.6859 43.6445 12.3109C43.8477 12.9359 43.9492 13.6937 43.9492 14.5844V22.6H40.5508V14.5609C40.5508 13.9984 40.4688 13.557 40.3047 13.2367C40.1484 12.9086 39.918 12.6781 39.6133 12.5453C39.3164 12.4047 38.9492 12.3344 38.5117 12.3344C38.0273 12.3344 37.6133 12.4242 37.2695 12.6039C36.9336 12.7836 36.6641 13.0336 36.4609 13.3539C36.2578 13.6664 36.1094 14.0336 36.0156 14.4554C35.9219 14.8773 35.875 15.3304 35.875 15.8148ZM45.9766 16.389V16.1429C45.9766 15.2133 46.1094 14.3578 46.375 13.5765C46.6406 12.7875 47.0273 12.1039 47.5352 11.5258C48.043 10.9476 48.668 10.4984 49.4102 10.1781C50.1523 9.84998 51.0039 9.68591 51.9648 9.68591C52.9258 9.68591 53.7812 9.84998 54.5312 10.1781C55.2812 10.4984 55.9102 10.9476 56.418 11.5258C56.9336 12.1039 57.3242 12.7875 57.5898 13.5765C57.8555 14.3578 57.9883 15.2133 57.9883 16.1429V16.389C57.9883 17.3109 57.8555 18.1664 57.5898 18.9554C57.3242 19.7367 56.9336 20.4203 56.418 21.0062C55.9102 21.5844 55.2852 22.0336 54.543 22.3539C53.8008 22.6742 52.9492 22.8344 51.9883 22.8344C51.0273 22.8344 50.1719 22.6742 49.4219 22.3539C48.6797 22.0336 48.0508 21.5844 47.5352 21.0062C47.0273 20.4203 46.6406 19.7367 46.375 18.9554C46.1094 18.1664 45.9766 17.3109 45.9766 16.389ZM49.3516 16.1429V16.389C49.3516 16.9203 49.3984 17.4164 49.4922 17.8773C49.5859 18.3383 49.7344 18.7445 49.9375 19.0961C50.1484 19.4398 50.4219 19.7094 50.7578 19.9047C51.0938 20.1 51.5039 20.1976 51.9883 20.1976C52.457 20.1976 52.8594 20.1 53.1953 19.9047C53.5312 19.7094 53.8008 19.4398 54.0039 19.0961C54.207 18.7445 54.3555 18.3383 54.4492 17.8773C54.5508 17.4164 54.6016 16.9203 54.6016 16.389V16.1429C54.6016 15.6273 54.5508 15.1429 54.4492 14.6898C54.3555 14.2289 54.2031 13.8226 53.9922 13.4711C53.7891 13.1117 53.5195 12.8304 53.1836 12.6273C52.8477 12.4242 52.4414 12.3226 51.9648 12.3226C51.4883 12.3226 51.082 12.4242 50.7461 12.6273C50.418 12.8304 50.1484 13.1117 49.9375 13.4711C49.7344 13.8226 49.5859 14.2289 49.4922 14.6898C49.3984 15.1429 49.3516 15.6273 49.3516 16.1429ZM63.4375 12.3578V27.475H60.0625V9.92029H63.1914L63.4375 12.3578ZM71.4648 16.1195V16.3656C71.4648 17.2875 71.3555 18.1429 71.1367 18.932C70.9258 19.7211 70.6133 20.4086 70.1992 20.9945C69.7852 21.5726 69.2695 22.0258 68.6523 22.3539C68.043 22.6742 67.3398 22.8344 66.543 22.8344C65.7695 22.8344 65.0977 22.6781 64.5273 22.3656C63.957 22.0531 63.4766 21.6156 63.0859 21.0531C62.7031 20.4828 62.3945 19.8226 62.1602 19.0726C61.9258 18.3226 61.7461 17.5179 61.6211 16.6586V16.014C61.7461 15.0922 61.9258 14.2484 62.1602 13.4828C62.3945 12.7094 62.7031 12.0414 63.0859 11.4789C63.4766 10.9086 63.9531 10.4672 64.5156 10.1547C65.0859 9.84216 65.7539 9.68591 66.5195 9.68591C67.3242 9.68591 68.0312 9.83826 68.6406 10.1429C69.2578 10.4476 69.7734 10.8851 70.1875 11.4554C70.6094 12.0258 70.9258 12.7054 71.1367 13.4945C71.3555 14.2836 71.4648 15.1586 71.4648 16.1195ZM68.0781 16.3656V16.1195C68.0781 15.5804 68.0312 15.0844 67.9375 14.6312C67.8516 14.1703 67.7109 13.7679 67.5156 13.4242C67.3281 13.0804 67.0781 12.8148 66.7656 12.6273C66.4609 12.432 66.0898 12.3344 65.6523 12.3344C65.1914 12.3344 64.7969 12.4086 64.4688 12.557C64.1484 12.7054 63.8867 12.9203 63.6836 13.2015C63.4805 13.4828 63.3281 13.8187 63.2266 14.2094C63.125 14.6 63.0625 15.0414 63.0391 15.5336V17.1625C63.0781 17.7406 63.1875 18.2601 63.3672 18.7211C63.5469 19.1742 63.8242 19.5336 64.1992 19.7992C64.5742 20.0648 65.0664 20.1976 65.6758 20.1976C66.1211 20.1976 66.4961 20.1 66.8008 19.9047C67.1055 19.7015 67.3516 19.4242 67.5391 19.0726C67.7344 18.7211 67.8711 18.3148 67.9492 17.8539C68.0352 17.3929 68.0781 16.8969 68.0781 16.3656ZM79.3984 22.8344C78.4141 22.8344 77.5312 22.6781 76.75 22.3656C75.9688 22.0453 75.3047 21.6039 74.7578 21.0414C74.2188 20.4789 73.8047 19.8265 73.5156 19.0844C73.2266 18.3344 73.082 17.5375 73.082 16.6937V16.225C73.082 15.264 73.2188 14.3851 73.4922 13.5883C73.7656 12.7914 74.1562 12.1 74.6641 11.514C75.1797 10.9281 75.8047 10.4789 76.5391 10.1664C77.2734 9.84607 78.1016 9.68591 79.0234 9.68591C79.9219 9.68591 80.7188 9.83435 81.4141 10.1312C82.1094 10.4281 82.6914 10.85 83.1602 11.3969C83.6367 11.9437 83.9961 12.6 84.2383 13.3656C84.4805 14.1234 84.6016 14.9672 84.6016 15.8969V17.3031H74.5234V15.0531H81.2852V14.7953C81.2852 14.3265 81.1992 13.9086 81.0273 13.5414C80.8633 13.1664 80.6133 12.8695 80.2773 12.6508C79.9414 12.432 79.5117 12.3226 78.9883 12.3226C78.543 12.3226 78.1602 12.4203 77.8398 12.6156C77.5195 12.8109 77.2578 13.0844 77.0547 13.4359C76.8594 13.7875 76.7109 14.2015 76.6094 14.6781C76.5156 15.1469 76.4688 15.6625 76.4688 16.225V16.6937C76.4688 17.2015 76.5391 17.6703 76.6797 18.1C76.8281 18.5297 77.0352 18.9008 77.3008 19.2133C77.5742 19.5258 77.9023 19.7679 78.2852 19.9398C78.6758 20.1117 79.1172 20.1976 79.6094 20.1976C80.2188 20.1976 80.7852 20.0804 81.3086 19.8461C81.8398 19.6039 82.2969 19.2406 82.6797 18.7562L84.3203 20.5375C84.0547 20.9203 83.6914 21.2875 83.2305 21.639C82.7773 21.9906 82.2305 22.2797 81.5898 22.5062C80.9492 22.725 80.2188 22.8344 79.3984 22.8344ZM92.7344 9.92029V12.3109H85.3516V9.92029H92.7344ZM87.1797 6.79138H90.5547V18.7797C90.5547 19.1469 90.6016 19.4281 90.6953 19.6234C90.7969 19.8187 90.9453 19.9554 91.1406 20.0336C91.3359 20.1039 91.582 20.139 91.8789 20.139C92.0898 20.139 92.2773 20.1312 92.4414 20.1156C92.6133 20.0922 92.7578 20.0687 92.875 20.0453L92.8867 22.5297C92.5977 22.6234 92.2852 22.6976 91.9492 22.7523C91.6133 22.807 91.2422 22.8344 90.8359 22.8344C90.0938 22.8344 89.4453 22.7133 88.8906 22.4711C88.3438 22.2211 87.9219 21.8226 87.625 21.2758C87.3281 20.7289 87.1797 20.0101 87.1797 19.1195V6.79138ZM98.0312 12.6859V22.6H94.6562V9.92029H97.832L98.0312 12.6859ZM101.852 9.83826L101.793 12.9672C101.629 12.9437 101.43 12.9242 101.195 12.9086C100.969 12.8851 100.762 12.8734 100.574 12.8734C100.098 12.8734 99.6836 12.9359 99.332 13.0609C98.9883 13.1781 98.6992 13.3539 98.4648 13.5883C98.2383 13.8226 98.0664 14.1078 97.9492 14.4437C97.8398 14.7797 97.7773 15.1625 97.7617 15.5922L97.082 15.3812C97.082 14.5609 97.1641 13.807 97.3281 13.1195C97.4922 12.4242 97.7305 11.8187 98.043 11.3031C98.3633 10.7875 98.7539 10.389 99.2148 10.1078C99.6758 9.82654 100.203 9.68591 100.797 9.68591C100.984 9.68591 101.176 9.70154 101.371 9.73279C101.566 9.75623 101.727 9.79138 101.852 9.83826ZM109.891 19.7406V14.0922C109.891 13.6859 109.824 13.3383 109.691 13.0492C109.559 12.7523 109.352 12.5219 109.07 12.3578C108.797 12.1937 108.441 12.1117 108.004 12.1117C107.629 12.1117 107.305 12.1781 107.031 12.3109C106.758 12.4359 106.547 12.6195 106.398 12.8617C106.25 13.0961 106.176 13.3734 106.176 13.6937H102.801C102.801 13.1547 102.926 12.6429 103.176 12.1586C103.426 11.6742 103.789 11.2484 104.266 10.8812C104.742 10.5062 105.309 10.2133 105.965 10.0023C106.629 9.79138 107.371 9.68591 108.191 9.68591C109.176 9.68591 110.051 9.84998 110.816 10.1781C111.582 10.5062 112.184 10.9984 112.621 11.6547C113.066 12.3109 113.289 13.1312 113.289 14.1156V19.5414C113.289 20.2367 113.332 20.807 113.418 21.2523C113.504 21.6898 113.629 22.0726 113.793 22.4008V22.6H110.383C110.219 22.2562 110.094 21.8265 110.008 21.3109C109.93 20.7875 109.891 20.264 109.891 19.7406ZM110.336 14.8773L110.359 16.7875H108.473C108.027 16.7875 107.641 16.8383 107.312 16.9398C106.984 17.0414 106.715 17.1859 106.504 17.3734C106.293 17.5531 106.137 17.764 106.035 18.0062C105.941 18.2484 105.895 18.514 105.895 18.8031C105.895 19.0922 105.961 19.3539 106.094 19.5883C106.227 19.8148 106.418 19.9945 106.668 20.1273C106.918 20.2523 107.211 20.3148 107.547 20.3148C108.055 20.3148 108.496 20.2133 108.871 20.0101C109.246 19.807 109.535 19.557 109.738 19.2601C109.949 18.9633 110.059 18.682 110.066 18.4164L110.957 19.8461C110.832 20.1664 110.66 20.4984 110.441 20.8422C110.23 21.1859 109.961 21.5101 109.633 21.8148C109.305 22.1117 108.91 22.3578 108.449 22.5531C107.988 22.7406 107.441 22.8344 106.809 22.8344C106.004 22.8344 105.273 22.6742 104.617 22.3539C103.969 22.0258 103.453 21.5765 103.07 21.0062C102.695 20.4281 102.508 19.7719 102.508 19.0375C102.508 18.3734 102.633 17.7836 102.883 17.2679C103.133 16.7523 103.5 16.3187 103.984 15.9672C104.477 15.6078 105.09 15.3383 105.824 15.1586C106.559 14.9711 107.41 14.8773 108.379 14.8773H110.336ZM122.746 19.0961C122.746 18.8539 122.676 18.6351 122.535 18.4398C122.395 18.2445 122.133 18.0648 121.75 17.9008C121.375 17.7289 120.832 17.5726 120.121 17.432C119.48 17.2914 118.883 17.1156 118.328 16.9047C117.781 16.6859 117.305 16.4242 116.898 16.1195C116.5 15.8148 116.188 15.4554 115.961 15.0414C115.734 14.6195 115.621 14.139 115.621 13.6C115.621 13.0687 115.734 12.5687 115.961 12.1C116.195 11.6312 116.527 11.2172 116.957 10.8578C117.395 10.4906 117.926 10.2054 118.551 10.0023C119.184 9.79138 119.895 9.68591 120.684 9.68591C121.785 9.68591 122.73 9.86169 123.52 10.2133C124.316 10.5648 124.926 11.0492 125.348 11.6664C125.777 12.2758 125.992 12.9711 125.992 13.7523H122.617C122.617 13.4242 122.547 13.1312 122.406 12.8734C122.273 12.6078 122.062 12.4008 121.773 12.2523C121.492 12.0961 121.125 12.0179 120.672 12.0179C120.297 12.0179 119.973 12.0844 119.699 12.2172C119.426 12.3422 119.215 12.514 119.066 12.7328C118.926 12.9437 118.855 13.1781 118.855 13.4359C118.855 13.6312 118.895 13.807 118.973 13.9633C119.059 14.1117 119.195 14.2484 119.383 14.3734C119.57 14.4984 119.812 14.6156 120.109 14.725C120.414 14.8265 120.789 14.9203 121.234 15.0062C122.148 15.1937 122.965 15.4398 123.684 15.7445C124.402 16.0414 124.973 16.4476 125.395 16.9633C125.816 17.4711 126.027 18.139 126.027 18.9672C126.027 19.5297 125.902 20.0453 125.652 20.514C125.402 20.9828 125.043 21.3929 124.574 21.7445C124.105 22.0883 123.543 22.3578 122.887 22.5531C122.238 22.7406 121.508 22.8344 120.695 22.8344C119.516 22.8344 118.516 22.6234 117.695 22.2015C116.883 21.7797 116.266 21.2445 115.844 20.5961C115.43 19.9398 115.223 19.2679 115.223 18.5804H118.422C118.438 19.0414 118.555 19.4125 118.773 19.6937C119 19.975 119.285 20.1781 119.629 20.3031C119.98 20.4281 120.359 20.4906 120.766 20.4906C121.203 20.4906 121.566 20.432 121.855 20.3148C122.145 20.1898 122.363 20.0258 122.512 19.8226C122.668 19.6117 122.746 19.3695 122.746 19.0961ZM134.43 9.92029V12.3109H127.047V9.92029H134.43ZM128.875 6.79138H132.25V18.7797C132.25 19.1469 132.297 19.4281 132.391 19.6234C132.492 19.8187 132.641 19.9554 132.836 20.0336C133.031 20.1039 133.277 20.139 133.574 20.139C133.785 20.139 133.973 20.1312 134.137 20.1156C134.309 20.0922 134.453 20.0687 134.57 20.0453L134.582 22.5297C134.293 22.6234 133.98 22.6976 133.645 22.7523C133.309 22.807 132.938 22.8344 132.531 22.8344C131.789 22.8344 131.141 22.7133 130.586 22.4711C130.039 22.2211 129.617 21.8226 129.32 21.2758C129.023 20.7289 128.875 20.0101 128.875 19.1195V6.79138ZM139.727 12.6859V22.6H136.352V9.92029H139.527L139.727 12.6859ZM143.547 9.83826L143.488 12.9672C143.324 12.9437 143.125 12.9242 142.891 12.9086C142.664 12.8851 142.457 12.8734 142.27 12.8734C141.793 12.8734 141.379 12.9359 141.027 13.0609C140.684 13.1781 140.395 13.3539 140.16 13.5883C139.934 13.8226 139.762 14.1078 139.645 14.4437C139.535 14.7797 139.473 15.1625 139.457 15.5922L138.777 15.3812C138.777 14.5609 138.859 13.807 139.023 13.1195C139.188 12.4242 139.426 11.8187 139.738 11.3031C140.059 10.7875 140.449 10.389 140.91 10.1078C141.371 9.82654 141.898 9.68591 142.492 9.68591C142.68 9.68591 142.871 9.70154 143.066 9.73279C143.262 9.75623 143.422 9.79138 143.547 9.83826Z" fill="#00E06E"/>
</svg>
