<svg width="168" height="32" viewBox="0 0 168 32" fill="none" xmlns="http://www.w3.org/2000/svg">
<path d="M22.681 26.4845L1.2684 11.714C-0.901507 10.2173 -0.163881 7.10088 2.54194 6.36802L25.2997 0.191307C25.7818 0.0173566 26.2984 -0.0391112 26.8067 0.0265948C27.3149 0.0923007 27.8002 0.278283 28.2223 0.569108C28.6442 0.859932 28.9908 1.24721 29.2331 1.6988C29.4754 2.15038 29.6066 2.65326 29.6157 3.16568L28.2669 24.1116C28.107 26.5978 24.8509 27.9812 22.681 26.4845Z" fill="#00E06E"/>
<path d="M15.8901 30.1304L3.27525 5.46055C2.98688 4.89618 2.85999 4.26312 2.90856 3.63121C2.95712 2.9993 3.17927 2.39308 3.55048 1.8794C3.92171 1.36572 4.42758 0.96454 5.01232 0.720098C5.59706 0.475655 6.23795 0.397452 6.86431 0.494119L30.2428 4.10227C30.7809 4.18535 31.2918 4.395 31.7333 4.71398C32.1747 5.03297 32.5341 5.45218 32.782 5.93714C33.0297 6.4221 33.159 6.95895 33.1589 7.50358C33.1588 8.04819 33.0294 8.58502 32.7815 9.0699L22.0119 30.1316C21.7227 30.6943 21.284 31.1665 20.7439 31.4961C20.2038 31.8257 19.5834 32 18.9506 31.9999C18.3179 31.9997 17.6975 31.8252 17.1575 31.4955C16.6176 31.1656 16.1791 30.6933 15.8901 30.1304Z" fill="#00E06E"/>
<path d="M23.5791 8.72693L19.0903 8L13.5791 9.57011L15.7789 14.0856L20.9301 17.8153C21.0438 17.8966 21.1688 17.959 21.3007 18L23.2573 13.9852L23.5791 8.72693Z" fill="white"/>
<path d="M54.0615 13.8866V16.6288H45.1553V13.8866H54.0615ZM46.1982 6.93738V23.9999H42.6826V6.93738H46.1982ZM56.5693 6.93738V23.9999H53.0654V6.93738H56.5693ZM58.8779 17.7889V17.5428C58.8779 16.6132 59.0107 15.7577 59.2764 14.9764C59.542 14.1874 59.9287 13.5038 60.4365 12.9257C60.9443 12.3475 61.5693 11.8983 62.3115 11.578C63.0537 11.2499 63.9053 11.0858 64.8662 11.0858C65.8271 11.0858 66.6826 11.2499 67.4326 11.578C68.1826 11.8983 68.8115 12.3475 69.3193 12.9257C69.835 13.5038 70.2256 14.1874 70.4912 14.9764C70.7568 15.7577 70.8896 16.6132 70.8896 17.5428V17.7889C70.8896 18.7108 70.7568 19.5663 70.4912 20.3553C70.2256 21.1366 69.835 21.8202 69.3193 22.4061C68.8115 22.9843 68.1865 23.4335 67.4443 23.7538C66.7021 24.0741 65.8506 24.2343 64.8896 24.2343C63.9287 24.2343 63.0732 24.0741 62.3232 23.7538C61.5811 23.4335 60.9521 22.9843 60.4365 22.4061C59.9287 21.8202 59.542 21.1366 59.2764 20.3553C59.0107 19.5663 58.8779 18.7108 58.8779 17.7889ZM62.2529 17.5428V17.7889C62.2529 18.3202 62.2998 18.8163 62.3936 19.2772C62.4873 19.7382 62.6357 20.1444 62.8389 20.496C63.0498 20.8397 63.3232 21.1093 63.6592 21.3046C63.9951 21.4999 64.4053 21.5975 64.8896 21.5975C65.3584 21.5975 65.7607 21.4999 66.0967 21.3046C66.4326 21.1093 66.7021 20.8397 66.9053 20.496C67.1084 20.1444 67.2568 19.7382 67.3506 19.2772C67.4521 18.8163 67.5029 18.3202 67.5029 17.7889V17.5428C67.5029 17.0272 67.4521 16.5428 67.3506 16.0897C67.2568 15.6288 67.1045 15.2225 66.8936 14.871C66.6904 14.5116 66.4209 14.2303 66.085 14.0272C65.749 13.8241 65.3428 13.7225 64.8662 13.7225C64.3896 13.7225 63.9834 13.8241 63.6475 14.0272C63.3193 14.2303 63.0498 14.5116 62.8389 14.871C62.6357 15.2225 62.4873 15.6288 62.3936 16.0897C62.2998 16.5428 62.2529 17.0272 62.2529 17.5428ZM76.3389 13.7577V28.8749H72.9639V11.3202H76.0928L76.3389 13.7577ZM84.3662 17.5194V17.7655C84.3662 18.6874 84.2568 19.5428 84.0381 20.3319C83.8271 21.121 83.5146 21.8085 83.1006 22.3944C82.6865 22.9725 82.1709 23.4257 81.5537 23.7538C80.9443 24.0741 80.2412 24.2343 79.4443 24.2343C78.6709 24.2343 77.999 24.078 77.4287 23.7655C76.8584 23.453 76.3779 23.0155 75.9873 22.453C75.6045 21.8827 75.2959 21.2225 75.0615 20.4725C74.8271 19.7225 74.6475 18.9178 74.5225 18.0585V17.4139C74.6475 16.4921 74.8271 15.6483 75.0615 14.8827C75.2959 14.1093 75.6045 13.4413 75.9873 12.8788C76.3779 12.3085 76.8545 11.8671 77.417 11.5546C77.9873 11.2421 78.6553 11.0858 79.4209 11.0858C80.2256 11.0858 80.9326 11.2382 81.542 11.5428C82.1592 11.8475 82.6748 12.285 83.0889 12.8553C83.5107 13.4257 83.8271 14.1053 84.0381 14.8944C84.2568 15.6835 84.3662 16.5585 84.3662 17.5194ZM80.9795 17.7655V17.5194C80.9795 16.9803 80.9326 16.4843 80.8389 16.0311C80.7529 15.5702 80.6123 15.1678 80.417 14.8241C80.2295 14.4803 79.9795 14.2147 79.667 14.0272C79.3623 13.8319 78.9912 13.7343 78.5537 13.7343C78.0928 13.7343 77.6982 13.8085 77.3701 13.9569C77.0498 14.1053 76.7881 14.3202 76.585 14.6014C76.3818 14.8827 76.2295 15.2186 76.1279 15.6093C76.0264 15.9999 75.9639 16.4413 75.9404 16.9335V18.5624C75.9795 19.1405 76.0889 19.66 76.2686 20.121C76.4482 20.5741 76.7256 20.9335 77.1006 21.1991C77.4756 21.4647 77.9678 21.5975 78.5771 21.5975C79.0225 21.5975 79.3975 21.4999 79.7021 21.3046C80.0068 21.1014 80.2529 20.8241 80.4404 20.4725C80.6357 20.121 80.7725 19.7147 80.8506 19.2538C80.9365 18.7928 80.9795 18.2968 80.9795 17.7655ZM92.2998 24.2343C91.3154 24.2343 90.4326 24.078 89.6514 23.7655C88.8701 23.4452 88.2061 23.0038 87.6592 22.4413C87.1201 21.8788 86.7061 21.2264 86.417 20.4843C86.1279 19.7343 85.9834 18.9374 85.9834 18.0936V17.6249C85.9834 16.6639 86.1201 15.785 86.3936 14.9882C86.667 14.1913 87.0576 13.4999 87.5654 12.9139C88.0811 12.328 88.7061 11.8788 89.4404 11.5663C90.1748 11.246 91.0029 11.0858 91.9248 11.0858C92.8232 11.0858 93.6201 11.2343 94.3154 11.5311C95.0107 11.828 95.5928 12.2499 96.0615 12.7968C96.5381 13.3436 96.8975 13.9999 97.1396 14.7655C97.3818 15.5233 97.5029 16.3671 97.5029 17.2968V18.703H87.4248V16.453H94.1865V16.1952C94.1865 15.7264 94.1006 15.3085 93.9287 14.9413C93.7646 14.5663 93.5146 14.2694 93.1787 14.0507C92.8428 13.8319 92.4131 13.7225 91.8896 13.7225C91.4443 13.7225 91.0615 13.8202 90.7412 14.0155C90.4209 14.2108 90.1592 14.4843 89.9561 14.8358C89.7607 15.1874 89.6123 15.6014 89.5107 16.078C89.417 16.5468 89.3701 17.0624 89.3701 17.6249V18.0936C89.3701 18.6014 89.4404 19.0702 89.5811 19.4999C89.7295 19.9296 89.9365 20.3007 90.2021 20.6132C90.4756 20.9257 90.8037 21.1678 91.1865 21.3397C91.5771 21.5116 92.0186 21.5975 92.5107 21.5975C93.1201 21.5975 93.6865 21.4803 94.21 21.246C94.7412 21.0038 95.1982 20.6405 95.5811 20.1561L97.2217 21.9374C96.9561 22.3202 96.5928 22.6874 96.1318 23.0389C95.6787 23.3905 95.1318 23.6796 94.4912 23.9061C93.8506 24.1249 93.1201 24.2343 92.2998 24.2343ZM103.151 6.93738V23.9999H99.6357V6.93738H103.151ZM109.948 14.2264V16.9686H102.19V14.2264H109.948ZM110.769 6.93738V9.69128H102.19V6.93738H110.769ZM116.159 11.3202V23.9999H112.772V11.3202H116.159ZM112.562 8.0155C112.562 7.52332 112.733 7.11707 113.077 6.79675C113.421 6.47644 113.882 6.31628 114.46 6.31628C115.03 6.31628 115.487 6.47644 115.831 6.79675C116.183 7.11707 116.358 7.52332 116.358 8.0155C116.358 8.50769 116.183 8.91394 115.831 9.23425C115.487 9.55457 115.03 9.71472 114.46 9.71472C113.882 9.71472 113.421 9.55457 113.077 9.23425C112.733 8.91394 112.562 8.50769 112.562 8.0155ZM122.253 14.0272V23.9999H118.878V11.3202H122.042L122.253 14.0272ZM121.761 17.2147H120.847C120.847 16.2772 120.968 15.4335 121.21 14.6835C121.452 13.9257 121.792 13.2811 122.229 12.7499C122.667 12.2108 123.187 11.8007 123.788 11.5194C124.397 11.2303 125.077 11.0858 125.827 11.0858C126.421 11.0858 126.964 11.1718 127.456 11.3436C127.948 11.5155 128.37 11.7889 128.722 12.1639C129.081 12.5389 129.354 13.035 129.542 13.6522C129.737 14.2694 129.835 15.0233 129.835 15.9139V23.9999H126.437V15.9022C126.437 15.3397 126.358 14.9022 126.202 14.5897C126.046 14.2772 125.815 14.0585 125.511 13.9335C125.214 13.8007 124.847 13.7343 124.409 13.7343C123.956 13.7343 123.562 13.8241 123.226 14.0038C122.897 14.1835 122.624 14.4335 122.405 14.7538C122.194 15.0663 122.034 15.4335 121.925 15.8553C121.815 16.2772 121.761 16.7303 121.761 17.2147ZM139.89 21.2343V5.99988H143.288V23.9999H140.229L139.89 21.2343ZM131.874 17.8124V17.5663C131.874 16.5975 131.983 15.7186 132.202 14.9296C132.421 14.1327 132.741 13.4491 133.163 12.8788C133.585 12.3085 134.104 11.8671 134.722 11.5546C135.339 11.2421 136.042 11.0858 136.831 11.0858C137.573 11.0858 138.222 11.2421 138.776 11.5546C139.339 11.8671 139.815 12.3124 140.206 12.8905C140.604 13.4608 140.925 14.1366 141.167 14.9178C141.409 15.6913 141.585 16.5389 141.694 17.4608V17.9999C141.585 18.8827 141.409 19.703 141.167 20.4608C140.925 21.2186 140.604 21.8827 140.206 22.453C139.815 23.0155 139.339 23.453 138.776 23.7655C138.214 24.078 137.558 24.2343 136.808 24.2343C136.019 24.2343 135.315 24.0741 134.698 23.7538C134.089 23.4335 133.573 22.9843 133.151 22.4061C132.737 21.828 132.421 21.1483 132.202 20.3671C131.983 19.5858 131.874 18.7343 131.874 17.8124ZM135.249 17.5663V17.8124C135.249 18.3358 135.288 18.8241 135.366 19.2772C135.452 19.7303 135.589 20.1327 135.776 20.4843C135.972 20.828 136.222 21.0975 136.526 21.2928C136.839 21.4803 137.218 21.5741 137.663 21.5741C138.241 21.5741 138.718 21.4452 139.093 21.1874C139.468 20.9218 139.753 20.5585 139.948 20.0975C140.151 19.6366 140.269 19.1053 140.3 18.5038V16.9686C140.276 16.4764 140.206 16.035 140.089 15.6444C139.979 15.246 139.815 14.9061 139.597 14.6249C139.386 14.3436 139.12 14.1249 138.8 13.9686C138.487 13.8124 138.116 13.7343 137.687 13.7343C137.249 13.7343 136.874 13.8358 136.562 14.0389C136.249 14.2343 135.995 14.5038 135.8 14.8475C135.612 15.1913 135.472 15.5975 135.378 16.0663C135.292 16.5272 135.249 17.0272 135.249 17.5663ZM151.761 24.2343C150.776 24.2343 149.894 24.078 149.112 23.7655C148.331 23.4452 147.667 23.0038 147.12 22.4413C146.581 21.8788 146.167 21.2264 145.878 20.4843C145.589 19.7343 145.444 18.9374 145.444 18.0936V17.6249C145.444 16.6639 145.581 15.785 145.854 14.9882C146.128 14.1913 146.519 13.4999 147.026 12.9139C147.542 12.328 148.167 11.8788 148.901 11.5663C149.636 11.246 150.464 11.0858 151.386 11.0858C152.284 11.0858 153.081 11.2343 153.776 11.5311C154.472 11.828 155.054 12.2499 155.522 12.7968C155.999 13.3436 156.358 13.9999 156.601 14.7655C156.843 15.5233 156.964 16.3671 156.964 17.2968V18.703H146.886V16.453H153.647V16.1952C153.647 15.7264 153.562 15.3085 153.39 14.9413C153.226 14.5663 152.976 14.2694 152.64 14.0507C152.304 13.8319 151.874 13.7225 151.351 13.7225C150.905 13.7225 150.522 13.8202 150.202 14.0155C149.882 14.2108 149.62 14.4843 149.417 14.8358C149.222 15.1874 149.073 15.6014 148.972 16.078C148.878 16.5468 148.831 17.0624 148.831 17.6249V18.0936C148.831 18.6014 148.901 19.0702 149.042 19.4999C149.19 19.9296 149.397 20.3007 149.663 20.6132C149.937 20.9257 150.265 21.1678 150.647 21.3397C151.038 21.5116 151.479 21.5975 151.972 21.5975C152.581 21.5975 153.147 21.4803 153.671 21.246C154.202 21.0038 154.659 20.6405 155.042 20.1561L156.683 21.9374C156.417 22.3202 156.054 22.6874 155.593 23.0389C155.14 23.3905 154.593 23.6796 153.952 23.9061C153.312 24.1249 152.581 24.2343 151.761 24.2343ZM162.261 14.0858V23.9999H158.886V11.3202H162.062L162.261 14.0858ZM166.081 11.2382L166.022 14.3671C165.858 14.3436 165.659 14.3241 165.425 14.3085C165.198 14.285 164.991 14.2733 164.804 14.2733C164.327 14.2733 163.913 14.3358 163.562 14.4608C163.218 14.578 162.929 14.7538 162.694 14.9882C162.468 15.2225 162.296 15.5077 162.179 15.8436C162.069 16.1796 162.007 16.5624 161.991 16.9921L161.312 16.7811C161.312 15.9608 161.394 15.2069 161.558 14.5194C161.722 13.8241 161.96 13.2186 162.272 12.703C162.593 12.1874 162.983 11.7889 163.444 11.5077C163.905 11.2264 164.433 11.0858 165.026 11.0858C165.214 11.0858 165.405 11.1014 165.601 11.1327C165.796 11.1561 165.956 11.1913 166.081 11.2382Z" fill="#00E06E"/>
</svg>
