<svg width="164" height="32" viewBox="0 0 164 32" fill="none" xmlns="http://www.w3.org/2000/svg">
<path d="M9.80555 19.9817V28.1025C9.80555 28.4138 9.68188 28.7124 9.46173 28.9324C9.2417 29.1526 8.94315 29.2762 8.6318 29.2762C8.32056 29.2762 8.02202 29.1526 7.80187 28.9324C7.58172 28.7124 7.45806 28.4138 7.45806 28.1025V19.993C7.78491 20.2317 8.17668 20.3649 8.58126 20.3749C9.02223 20.3874 9.45432 20.2487 9.80555 19.9817ZM19.802 17.6343C19.5042 17.6343 19.2184 17.7526 19.0078 17.9632C18.7972 18.1738 18.6788 18.4596 18.6788 18.7575V20.1727C18.6788 20.484 18.8025 20.7826 19.0226 21.0026C19.2427 21.2228 19.5412 21.3464 19.8526 21.3464C20.1639 21.3464 20.4625 21.2228 20.6825 21.0026C20.9027 20.7826 21.0263 20.484 21.0263 20.1727V18.8136C21.0351 18.6526 21.009 18.4915 20.9499 18.3414C20.8909 18.1914 20.8002 18.0557 20.684 17.9438C20.5678 17.8319 20.4289 17.7464 20.2768 17.6929C20.1246 17.6395 19.9627 17.6195 19.802 17.6343ZM4.90839 23.0593C4.50423 23.0472 4.11297 22.9142 3.78519 22.6774V30.8206C3.78519 31.1335 3.90944 31.4335 4.13062 31.6546C4.35179 31.8758 4.65176 32 4.96455 32C5.27734 32 5.57731 31.8758 5.79848 31.6546C6.01966 31.4335 6.14391 31.1335 6.14391 30.8206V22.7336C5.77713 22.9707 5.34437 23.0848 4.90839 23.0593ZM16.1404 15.1969C15.9882 15.1893 15.8361 15.2127 15.6933 15.2658C15.5505 15.3188 15.42 15.4003 15.3096 15.5053C15.1993 15.6105 15.1115 15.7368 15.0516 15.8769C14.9917 16.017 14.9608 16.1678 14.961 16.3201V22.5763C14.961 22.8892 15.0853 23.1892 15.3064 23.4103C15.5277 23.6315 15.8276 23.7557 16.1404 23.7557C16.4532 23.7557 16.7532 23.6315 16.9744 23.4103C17.1955 23.1892 17.3198 22.8892 17.3198 22.5763V16.3987C17.3287 16.2367 17.3025 16.0746 17.2427 15.9236C17.183 15.7727 17.0913 15.6364 16.9738 15.5243C16.8563 15.4122 16.716 15.3269 16.5625 15.2743C16.409 15.2216 16.2458 15.2029 16.0842 15.2194L16.1404 15.1969ZM12.4114 17.6006C11.9883 17.5976 11.5765 17.4643 11.232 17.2187V25.3843C11.232 25.6972 11.3562 25.9972 11.5774 26.2183C11.7987 26.4395 12.0986 26.5637 12.4114 26.5637C12.7242 26.5637 13.0241 26.4395 13.2453 26.2183C13.4665 25.9972 13.5907 25.6972 13.5907 25.3843V17.2299C13.2345 17.4953 12.7994 17.6337 12.3552 17.623L12.4114 17.6006ZM2.35872 23.8568V1.04458C2.35577 0.766506 2.24322 0.500847 2.04554 0.305264C1.84786 0.109681 1.581 -1.12311e-05 1.30291 8.625e-10H1.05581C0.777727 -1.12311e-05 0.510866 0.109681 0.313182 0.305264C0.115499 0.500847 0.00295402 0.766506 0 1.04458V23.8568C0 24.1368 0.111242 24.4054 0.30924 24.6034C0.507238 24.8014 0.775795 24.9126 1.05581 24.9126H1.30291C1.58294 24.9126 1.85148 24.8014 2.04948 24.6034C2.24749 24.4054 2.35872 24.1368 2.35872 23.8568ZM5.03194 22.1945H4.78484C4.50482 22.1945 4.23627 22.0833 4.03827 21.8852C3.84027 21.6872 3.72903 21.4187 3.72903 21.1386V3.76272C3.73199 3.48466 3.84453 3.21898 4.04221 3.02341C4.23989 2.82783 4.50675 2.71814 4.78484 2.71815H5.03194C5.31002 2.71814 5.57688 2.82783 5.77457 3.02341C5.97225 3.21898 6.0848 3.48466 6.08775 3.76272V21.1611C6.08775 21.4411 5.97651 21.7097 5.77851 21.9077C5.58051 22.1057 5.31195 22.2169 5.03194 22.2169V22.1945ZM8.74974 19.5212H8.4914C8.21442 19.5212 7.94867 19.4112 7.75278 19.2153C7.5569 19.0194 7.44682 18.7538 7.44682 18.4767V6.45841C7.44536 6.32029 7.47131 6.18325 7.52309 6.05521C7.57487 5.92718 7.65158 5.8107 7.74874 5.71251C7.8459 5.61432 7.96159 5.53637 8.08907 5.48318C8.21655 5.42998 8.35325 5.40259 8.4914 5.4026H8.74974C9.02784 5.40556 9.29348 5.5181 9.48903 5.71578C9.68469 5.91346 9.79431 6.18032 9.79431 6.45841V18.4767C9.79431 18.7538 9.68424 19.0194 9.48835 19.2153C9.29247 19.4112 9.02683 19.5212 8.74974 19.5212ZM12.4675 16.7694H12.2317C11.9536 16.7694 11.6867 16.6598 11.489 16.4641C11.2913 16.2686 11.1788 16.0029 11.1759 15.7248V9.25518C11.1666 9.11096 11.1871 8.9664 11.2361 8.83038C11.2849 8.69448 11.3613 8.56991 11.4602 8.46467C11.5592 8.35931 11.6787 8.27552 11.8115 8.21824C11.9441 8.16107 12.0871 8.13164 12.2317 8.13198H12.4788C12.7588 8.13198 13.0273 8.24317 13.2254 8.44119C13.4234 8.63921 13.5346 8.90777 13.5346 9.18779V15.7024C13.536 15.842 13.5099 15.9805 13.4574 16.1098C13.4051 16.2392 13.3276 16.357 13.2293 16.4562C13.1311 16.5554 13.0143 16.6342 12.8854 16.688C12.7565 16.7418 12.6184 16.7694 12.4788 16.7694H12.4675ZM16.1966 14.3545H15.9495C15.6694 14.3545 15.4009 14.2433 15.2029 14.0453C15.0048 13.8473 14.8936 13.5787 14.8936 13.2987V11.6251C14.8966 11.347 15.0091 11.0814 15.2068 10.8858C15.4045 10.6902 15.6714 10.5806 15.9495 10.5806H16.1966C16.4747 10.5806 16.7415 10.6902 16.9392 10.8858C17.1369 11.0814 17.2494 11.347 17.2524 11.6251V13.2987C17.2524 13.5768 17.1427 13.8437 16.9471 14.0414C16.7515 14.239 16.4859 14.3516 16.2078 14.3545H16.1966Z" fill="#00E06E"/>
<path d="M33.2559 20.4697L35.8047 9.70312H37.2285L37.5537 11.4961L34.8379 22.5H33.3086L33.2559 20.4697ZM31.9463 9.70312L34.0557 20.4697L33.8799 22.5H32.1748L29.3359 9.70312H31.9463ZM39.7949 20.4258L41.8779 9.70312H44.4883L41.6582 22.5H39.9531L39.7949 20.4258ZM38.0283 9.70312L40.5947 20.5137L40.5244 22.5H38.9951L36.2617 11.4873L36.6133 9.70312H38.0283ZM50.7373 11.8916L47.2568 22.5H44.4531L49.208 9.70312H50.9922L50.7373 11.8916ZM53.6289 22.5L50.1396 11.8916L49.8584 9.70312H51.6602L56.4414 22.5H53.6289ZM53.4707 17.7363V19.8018H46.7119V17.7363H53.4707ZM61.5215 19.8281L64.5361 9.70312H67.4717L63.0156 22.5H61.082L61.5215 19.8281ZM58.7441 9.70312L61.75 19.8281L62.207 22.5H60.2559L55.8262 9.70312H58.7441ZM77.2539 20.4434V22.5H70.4424V20.4434H77.2539ZM71.3037 9.70312V22.5H68.667V9.70312H71.3037ZM76.3662 14.915V16.9189H70.4424V14.915H76.3662ZM77.2451 9.70312V11.7686H70.4424V9.70312H77.2451ZM85.4541 19.1514C85.4541 18.9229 85.4189 18.7178 85.3486 18.5361C85.2842 18.3486 85.1611 18.1787 84.9795 18.0264C84.7979 17.8682 84.543 17.7129 84.2148 17.5605C83.8867 17.4082 83.4619 17.25 82.9404 17.0859C82.3604 16.8984 81.8096 16.6875 81.2881 16.4531C80.7725 16.2188 80.3154 15.9463 79.917 15.6357C79.5244 15.3193 79.2139 14.9531 78.9854 14.5371C78.7627 14.1211 78.6514 13.6377 78.6514 13.0869C78.6514 12.5537 78.7686 12.0703 79.0029 11.6367C79.2373 11.1973 79.5654 10.8223 79.9873 10.5117C80.4092 10.1953 80.9072 9.95215 81.4814 9.78223C82.0615 9.6123 82.6973 9.52734 83.3887 9.52734C84.332 9.52734 85.1553 9.69727 85.8584 10.0371C86.5615 10.377 87.1064 10.8428 87.4932 11.4346C87.8857 12.0264 88.082 12.7031 88.082 13.4648H85.4629C85.4629 13.0898 85.3838 12.7617 85.2256 12.4805C85.0732 12.1934 84.8389 11.9678 84.5225 11.8037C84.2119 11.6396 83.8193 11.5576 83.3447 11.5576C82.8877 11.5576 82.5068 11.6279 82.2021 11.7686C81.8975 11.9033 81.6689 12.0879 81.5166 12.3223C81.3643 12.5508 81.2881 12.8086 81.2881 13.0957C81.2881 13.3125 81.3408 13.5088 81.4463 13.6846C81.5576 13.8604 81.7217 14.0244 81.9385 14.1768C82.1553 14.3291 82.4219 14.4727 82.7383 14.6074C83.0547 14.7422 83.4209 14.874 83.8369 15.0029C84.5342 15.2139 85.1465 15.4512 85.6738 15.7148C86.207 15.9785 86.6523 16.2744 87.0098 16.6025C87.3672 16.9307 87.6367 17.3027 87.8184 17.7188C88 18.1348 88.0908 18.6064 88.0908 19.1338C88.0908 19.6904 87.9824 20.1885 87.7656 20.6279C87.5488 21.0674 87.2354 21.4395 86.8252 21.7441C86.415 22.0488 85.9258 22.2803 85.3574 22.4385C84.7891 22.5967 84.1533 22.6758 83.4502 22.6758C82.8174 22.6758 82.1934 22.5938 81.5781 22.4297C80.9629 22.2598 80.4033 22.0049 79.8994 21.665C79.4014 21.3252 79.0029 20.8916 78.7041 20.3643C78.4053 19.8369 78.2559 19.2129 78.2559 18.4922H80.9014C80.9014 18.8906 80.9629 19.2275 81.0859 19.5029C81.209 19.7783 81.3818 20.001 81.6045 20.1709C81.833 20.3408 82.1025 20.4639 82.4131 20.54C82.7295 20.6162 83.0752 20.6543 83.4502 20.6543C83.9072 20.6543 84.2822 20.5898 84.5752 20.4609C84.874 20.332 85.0938 20.1533 85.2344 19.9248C85.3809 19.6963 85.4541 19.4385 85.4541 19.1514ZM97.9521 18.4307H99.6396C99.5518 19.2393 99.3203 19.9629 98.9453 20.6016C98.5703 21.2402 98.04 21.7471 97.3545 22.1221C96.6689 22.4912 95.8135 22.6758 94.7881 22.6758C94.0381 22.6758 93.3555 22.5352 92.7402 22.2539C92.1309 21.9727 91.6064 21.5742 91.167 21.0586C90.7275 20.5371 90.3877 19.9131 90.1475 19.1865C89.9131 18.4541 89.7959 17.6396 89.7959 16.7432V15.4688C89.7959 14.5723 89.9131 13.7607 90.1475 13.0342C90.3877 12.3018 90.7305 11.6748 91.1758 11.1533C91.627 10.6318 92.1689 10.2305 92.8018 9.94922C93.4346 9.66797 94.1465 9.52734 94.9375 9.52734C95.9043 9.52734 96.7217 9.70898 97.3896 10.0723C98.0576 10.4355 98.5762 10.9395 98.9453 11.584C99.3203 12.2227 99.5518 12.9639 99.6396 13.8076H97.9521C97.8701 13.21 97.7178 12.6973 97.4951 12.2695C97.2725 11.8359 96.9561 11.502 96.5459 11.2676C96.1357 11.0332 95.5996 10.916 94.9375 10.916C94.3691 10.916 93.8682 11.0244 93.4346 11.2412C93.0068 11.458 92.6465 11.7656 92.3535 12.1641C92.0664 12.5625 91.8496 13.04 91.7031 13.5967C91.5566 14.1533 91.4834 14.7715 91.4834 15.4512V16.7432C91.4834 17.3701 91.5479 17.959 91.6768 18.5098C91.8115 19.0605 92.0137 19.5439 92.2832 19.96C92.5527 20.376 92.8955 20.7041 93.3115 20.9443C93.7275 21.1787 94.2197 21.2959 94.7881 21.2959C95.5088 21.2959 96.083 21.1816 96.5107 20.9531C96.9385 20.7246 97.2607 20.3965 97.4775 19.9688C97.7002 19.541 97.8584 19.0283 97.9521 18.4307ZM110.31 15.2051V16.585H103.384V15.2051H110.31ZM103.647 9.70312V22.5H101.951V9.70312H103.647ZM111.786 9.70312V22.5H110.099V9.70312H111.786ZM119.696 10.8369L115.46 22.5H113.729L118.606 9.70312H119.723L119.696 10.8369ZM123.247 22.5L119.002 10.8369L118.976 9.70312H120.092L124.987 22.5H123.247ZM123.027 17.7627V19.1514H115.838V17.7627H123.027ZM126.701 9.70312H130.938C131.898 9.70312 132.71 9.84961 133.372 10.1426C134.04 10.4355 134.547 10.8691 134.893 11.4434C135.244 12.0117 135.42 12.7119 135.42 13.5439C135.42 14.1299 135.3 14.666 135.06 15.1523C134.825 15.6328 134.485 16.043 134.04 16.3828C133.601 16.7168 133.073 16.9658 132.458 17.1299L131.983 17.3145H128.002L127.984 15.9346H130.99C131.6 15.9346 132.106 15.8291 132.511 15.6182C132.915 15.4014 133.22 15.1113 133.425 14.748C133.63 14.3848 133.732 13.9834 133.732 13.5439C133.732 13.0518 133.636 12.6211 133.442 12.252C133.249 11.8828 132.944 11.5986 132.528 11.3994C132.118 11.1943 131.588 11.0918 130.938 11.0918H128.397V22.5H126.701V9.70312ZM134.181 22.5L131.069 16.6992L132.836 16.6904L135.991 22.3945V22.5H134.181ZM139.612 9.70312V22.5H137.916V9.70312H139.612ZM147.162 9.70312V22.5H145.492V9.70312H147.162ZM151.275 9.70312V11.0918H141.388V9.70312H151.275ZM153.903 9.70312L157.226 16.1279L160.557 9.70312H162.481L158.069 17.7188V22.5H156.373V17.7188L151.961 9.70312H153.903Z" fill="#00E06E"/>
</svg>
