<svg width="40" height="40" viewBox="0 0 40 40" fill="none" xmlns="http://www.w3.org/2000/svg">
<path d="M9.22301 20.95C9.42792 20.8626 9.64827 20.8171 9.87106 20.8163C10.0938 20.8155 10.3145 20.8594 10.5201 20.9453C10.7256 21.0313 10.9118 21.1575 11.0677 21.3167C11.2236 21.4758 11.346 21.6646 11.4277 21.8719C11.5094 22.0792 11.5487 22.3007 11.5433 22.5234C11.5379 22.7461 11.4878 22.9655 11.3962 23.1686C11.3046 23.3716 11.1731 23.5542 11.0097 23.7056C10.8463 23.857 10.6541 23.9741 10.4447 24.05C9.33058 24.489 8.37439 25.2531 7.70052 26.2429C7.02664 27.2328 6.66629 28.4025 6.66634 29.6V32.5C6.66634 32.942 6.84194 33.366 7.1545 33.6785C7.46706 33.9911 7.89098 34.1667 8.33301 34.1667H21.6663C22.1084 34.1667 22.5323 33.9911 22.8449 33.6785C23.1574 33.366 23.333 32.942 23.333 32.5V29.755C23.3332 28.5191 22.9578 27.3124 22.2565 26.2947C21.5553 25.2771 20.5613 24.4966 19.4063 24.0567C19.1956 23.9835 19.0016 23.8688 18.836 23.7193C18.6704 23.5698 18.5365 23.3886 18.4422 23.1864C18.3479 22.9842 18.2952 22.7652 18.2872 22.5422C18.2791 22.3193 18.3159 22.097 18.3954 21.8885C18.4748 21.68 18.5953 21.4896 18.7497 21.3286C18.9041 21.1676 19.0893 21.0392 19.2943 20.951C19.4992 20.8629 19.7198 20.8168 19.9428 20.8155C20.1659 20.8141 20.387 20.8576 20.593 20.9433C22.379 21.6236 23.9162 22.8305 25.0008 24.4042C26.0853 25.9778 26.6662 27.8438 26.6663 29.755V32.5C26.6663 33.8261 26.1396 35.0979 25.2019 36.0355C24.2642 36.9732 22.9924 37.5 21.6663 37.5H8.33301C7.00693 37.5 5.73516 36.9732 4.79747 36.0355C3.85979 35.0979 3.33301 33.8261 3.33301 32.5L3.33301 29.6C3.33324 27.7336 3.89514 25.9105 4.94561 24.3677C5.99608 22.825 7.48651 21.6341 9.22301 20.95ZM14.9997 4.16667C16.7678 4.16667 18.4635 4.86905 19.7137 6.11929C20.964 7.36953 21.6663 9.06522 21.6663 10.8333V14.1667C21.6663 15.9348 20.964 17.6305 19.7137 18.8807C18.4635 20.131 16.7678 20.8333 14.9997 20.8333C13.2316 20.8333 11.5359 20.131 10.2856 18.8807C9.03539 17.6305 8.33301 15.9348 8.33301 14.1667V10.8333C8.33301 9.06522 9.03539 7.36953 10.2856 6.11929C11.5359 4.86905 13.2316 4.16667 14.9997 4.16667ZM14.9997 7.5C14.1156 7.5 13.2678 7.85119 12.6427 8.47631C12.0175 9.10143 11.6663 9.94928 11.6663 10.8333V14.1667C11.6663 15.0507 12.0175 15.8986 12.6427 16.5237C13.2678 17.1488 14.1156 17.5 14.9997 17.5C15.8837 17.5 16.7316 17.1488 17.3567 16.5237C17.9818 15.8986 18.333 15.0507 18.333 14.1667V10.8333C18.333 9.94928 17.9818 9.10143 17.3567 8.47631C16.7316 7.85119 15.8837 7.5 14.9997 7.5ZM29.9997 35.8333C29.5576 35.8333 29.1337 35.6577 28.8212 35.3452C28.5086 35.0326 28.333 34.6087 28.333 34.1667C28.333 33.7246 28.5086 33.3007 28.8212 32.9882C29.1337 32.6756 29.5576 32.5 29.9997 32.5H31.6663C32.1084 32.5 32.5323 32.3244 32.8449 32.0118C33.1574 31.6993 33.333 31.2754 33.333 30.8333V27.77C33.3329 26.5853 32.9601 25.4306 32.2673 24.4695C31.5746 23.5084 30.597 22.7896 29.473 22.415C29.2653 22.3458 29.0732 22.2364 28.9078 22.0931C28.7424 21.9497 28.6068 21.7751 28.5089 21.5793C28.4109 21.3836 28.3524 21.1704 28.3369 20.952C28.3213 20.7337 28.3488 20.5144 28.418 20.3067C28.4872 20.099 28.5966 19.9069 28.74 19.7415C28.8833 19.576 29.0579 19.4405 29.2537 19.3425C29.4495 19.2446 29.6626 19.1861 29.881 19.1705C30.0993 19.1549 30.3186 19.1825 30.5263 19.2517C32.3143 19.8475 33.8695 20.9908 34.9715 22.5196C36.0735 24.0485 36.6664 25.8854 36.6663 27.77V30.8333C36.6663 32.1594 36.1396 33.4312 35.2019 34.3689C34.2642 35.3065 32.9924 35.8333 31.6663 35.8333H29.9997ZM24.9997 5.83333C24.5576 5.83333 24.1337 5.65774 23.8212 5.34518C23.5086 5.03262 23.333 4.60869 23.333 4.16667C23.333 3.72464 23.5086 3.30072 23.8212 2.98816C24.1337 2.67559 24.5576 2.5 24.9997 2.5C26.7678 2.5 28.4635 3.20238 29.7137 4.45262C30.964 5.70286 31.6663 7.39856 31.6663 9.16667V12.5C31.6663 14.2681 30.964 15.9638 29.7137 17.214C28.4635 18.4643 26.7678 19.1667 24.9997 19.1667C24.5576 19.1667 24.1337 18.9911 23.8212 18.6785C23.5086 18.3659 23.333 17.942 23.333 17.5C23.333 17.058 23.5086 16.634 23.8212 16.3215C24.1337 16.0089 24.5576 15.8333 24.9997 15.8333C25.8837 15.8333 26.7316 15.4821 27.3567 14.857C27.9818 14.2319 28.333 13.3841 28.333 12.5V9.16667C28.333 8.28261 27.9818 7.43476 27.3567 6.80964C26.7316 6.18452 25.8837 5.83333 24.9997 5.83333Z" fill="#00E06E"/>
</svg>
